<?xml version="1.0" encoding="UTF-8"?><svg id="_レイヤー_1" xmlns="http://www.w3.org/2000/svg" viewBox="0 0 713.03 713.03"><defs><style>.cls-1{font-family:PTSans-Regular, 'PT Sans';font-size:61.27px;}</style></defs><text class="cls-1" transform="translate(124.68 421.87) rotate(-101.74)"><tspan x="0" y="0">T</tspan></text><text class="cls-1" transform="translate(117.27 384.65) rotate(-92.78)"><tspan x="0" y="0">h</tspan></text><text class="cls-1" transform="translate(115.87 347.2) rotate(-84.16)"><tspan x="0" y="0">a</tspan></text><text class="cls-1" transform="translate(119.56 313) rotate(-75.56)"><tspan x="0" y="0">n</tspan></text><text class="cls-1" transform="translate(129.36 276.77) rotate(-67.12)"><tspan x="0" y="0">k</tspan></text><text class="cls-1" transform="translate(143.02 245.95) rotate(-60.67)"><tspan x="0" y="0"> </tspan></text><text class="cls-1" transform="translate(153.1 227.83) rotate(-54.31)"><tspan x="0" y="0">y</tspan></text><text class="cls-1" transform="translate(172.24 201.42) rotate(-46.06)"><tspan x="0" y="0">o</tspan></text><text class="cls-1" transform="translate(197.99 175.12) rotate(-37.25)"><tspan x="0" y="0">u</tspan></text><text class="cls-1" transform="translate(228.11 153.18) rotate(-30.29)"><tspan x="0" y="0"> </tspan></text><text class="cls-1" transform="translate(246.07 142.67) rotate(-24.18)"><tspan x="0" y="0">s</tspan></text><text class="cls-1" transform="translate(273.37 130.47) rotate(-16.26)"><tspan x="0" y="0">o</tspan></text><text class="cls-1" transform="translate(309.19 120.79) rotate(-9.47)"><tspan x="0" y="0"> </tspan></text><text class="cls-1" transform="translate(329.19 116.46) rotate(-.63)"><tspan x="0" y="0">m</tspan></text><text class="cls-1" transform="translate(382.52 117) rotate(10.16)"><tspan x="0" y="0">u</tspan></text><text class="cls-1" transform="translate(418.91 124.02) rotate(18.37)"><tspan x="0" y="0">c</tspan></text><text class="cls-1" transform="translate(449 134.1) rotate(26.59)"><tspan x="0" y="0">h</tspan></text><text class="cls-1" transform="translate(482.41 151.69) rotate(33.51)"><tspan x="0" y="0"> </tspan></text><text class="cls-1" transform="translate(499.77 163.35) rotate(38.85)"><tspan x="0" y="0">f</tspan></text><text class="cls-1" transform="translate(518.39 178.14) rotate(46.08)"><tspan x="0" y="0">o</tspan></text><text class="cls-1" transform="translate(543.59 205.26) rotate(53.51)"><tspan x="0" y="0">r</tspan></text><text class="cls-1" transform="translate(558.39 225.82) rotate(59.06)"><tspan x="0" y="0"> </tspan></text><text class="cls-1" transform="translate(569.09 243.64) rotate(65.17)"><tspan x="0" y="0">s</tspan></text><text class="cls-1" transform="translate(581.58 270.88) rotate(72.92)"><tspan x="0" y="0">e</tspan></text><text class="cls-1" transform="translate(591.63 304.58) rotate(81.18)"><tspan x="0" y="0">e</tspan></text><text class="cls-1" transform="translate(596.39 339.68) rotate(87.89)"><tspan x="0" y="0">i</tspan></text><text class="cls-1" transform="translate(597.42 360.36) rotate(94.9)"><tspan x="0" y="0">n</tspan></text><text class="cls-1" transform="translate(593.88 397.67) rotate(103.8)"><tspan x="0" y="0">g</tspan></text><text class="cls-1" transform="translate(584.28 433.57) rotate(110.69)"><tspan x="0" y="0"> </tspan></text><text class="cls-1" transform="translate(577.97 453.01) rotate(119.46)"><tspan x="0" y="0">m</tspan></text><text class="cls-1" transform="translate(550.6 498.9) rotate(129.62)"><tspan x="0" y="0">y</tspan></text><text class="cls-1" transform="translate(529.17 523.87) rotate(136)"><tspan x="0" y="0"> </tspan></text><text class="cls-1" transform="translate(514.47 538.41) rotate(142.95)"><tspan x="0" y="0">p</tspan></text><text class="cls-1" transform="translate(484.68 560.5) rotate(151.81)"><tspan x="0" y="0">o</tspan></text><text class="cls-1" transform="translate(451.75 577.39) rotate(159.23)"><tspan x="0" y="0">r</tspan></text><text class="cls-1" transform="translate(427.99 586.02) rotate(164.49)"><tspan x="0" y="0">t</tspan></text><text class="cls-1" transform="translate(403.57 592.35) rotate(170.98)"><tspan x="0" y="0">f</tspan></text><text class="cls-1" transform="translate(380.09 596.23) rotate(178.24)"><tspan x="0" y="0">o</tspan></text><text class="cls-1" transform="translate(343.05 596.65) rotate(-174.66)"><tspan x="0" y="0">l</tspan></text><text class="cls-1" transform="translate(320.7 594.31) rotate(-169.44)"><tspan x="0" y="0">i</tspan></text><text class="cls-1" transform="translate(300.29 590.75) rotate(-162.54)"><tspan x="0" y="0">o</tspan></text><text class="cls-1" transform="translate(265.11 578.89) rotate(-155.67)"><tspan x="0" y="0"> </tspan></text><text class="cls-1" transform="translate(246.17 570.34) rotate(-149.63)"><tspan x="0" y="0">s</tspan></text><text class="cls-1" transform="translate(220.33 554.64) rotate(-143.57)"><tspan x="0" y="0">i</tspan></text><text class="cls-1" transform="translate(203.54 542.11) rotate(-138.08)"><tspan x="0" y="0">t</tspan></text><text class="cls-1" transform="translate(184.89 525.46) rotate(-130.89)"><tspan x="0" y="0">e</tspan></text><text class="cls-1" transform="translate(162.22 498.3) rotate(-123.89)"><tspan x="0" y="0">!</tspan></text></svg>